<svg width="39" height="700" viewBox="0 0 39 700" fill="none" xmlns="http://www.w3.org/2000/svg">
<path d="M21.5 0.5V330.599C20.8422 330.533 20.175 330.5 19.5 330.5C18.825 330.5 18.1578 330.533 17.5 330.599V0.5H21.5ZM22.5 332V331.736C31.568 333.174 38.5 341.027 38.5 350.5C38.5 359.973 31.568 367.826 22.5 369.264V368V367.5H22H17H16.5V368V369.264C7.43204 367.826 0.5 359.973 0.5 350.5C0.5 341.027 7.43204 333.174 16.5 331.736V332V332.5H17H22H22.5V332ZM21.5 368.5V369.396C20.8427 369.465 20.1755 369.5 19.5 369.5C18.8245 369.5 18.1573 369.465 17.5 369.396V368.5H21.5ZM17.5 699.5V370.401C18.1578 370.467 18.825 370.5 19.5 370.5C20.175 370.5 20.8422 370.467 21.5 370.401V699.5H17.5ZM19.5 365.5C27.7843 365.5 34.5 358.784 34.5 350.5C34.5 342.216 27.7843 335.5 19.5 335.5C11.2157 335.5 4.5 342.216 4.5 350.5C4.5 358.784 11.2157 365.5 19.5 365.5Z" fill="white" stroke="black"/>
</svg>
